#!OML:ASF E:\motion texture\Top Level 1\Subject 1\Session 1\male.ASF
:FULLY-SPECIFIED
:DEGREES
425
root -28.5295 17.7303 4.65281 501.714 -85.3075 -497.46
lowerback -0.909409 1.08841 1.55206
upperback -0.404063 1.42921 0.942727
thorax 0.109982 0.710515 0.109477
lowerneck -15.079 -3.93876 -6.90667
upperneck 24.1088 -5.04155 3.585
head 10.4867 -2.65936 1.73151
rclavicle -8.26199e-015 4.96962e-017
rhumerus -23.406 -17.2481 -74.1901
rradius 23.4913
rwrist 10.9565
rhand -16.363 -26.3573
rfingers 7.12502
rthumb 9.85 -56.1069
lclavicle -8.26199e-015 4.96962e-017
lhumerus -41.0521 39.6031 60.4429
lradius 12.7622
lwrist -48.9082
lhand -13.1883 19.9026
lfingers 7.12502
lthumb 12.9117 49.4831
rfemur -13.4474 -3.20937 21.4008
rtibia 64.1994
rfoot 11.2469 -18.4922
rtoes 5.46472
lfemur -22.3466 -1.37187 -16.7027
ltibia 26.8742
lfoot -5.54425 2.86049
ltoes -2.35959
426
root -28.6902 17.7535 4.66432 500.559 -85.454 -496.485
lowerback -0.868655 0.910393 1.519
upperback -0.403611 1.19244 1.01496
thorax 0.0831554 0.591861 0.19863
lowerneck -15.1438 -3.82442 -6.81385
upperneck 24.128 -4.88391 3.52221
head 10.4921 -2.58587 1.71472
rclavicle -1.05604e-016 -1.08835e-014
rhumerus -23.4586 -17.221 -74.5238
rradius 23.1826
rwrist 11.5566
rhand -16.082 -26.0091
rfingers 7.12502
rthumb 10.1211 -55.7457
lclavicle -1.05604e-016 -1.08835e-014
lhumerus -38.9222 37.9856 62.8526
lradius 13.0742
lwrist -47.2897
lhand -13.2687 19.783
lfingers 7.12502
lthumb 12.8341 49.3684
rfemur -14.6035 -3.94009 21.2929
rtibia 65.4485
rfoot 10.3557 -19.6618
rtoes 6.74977
lfemur -21.2958 -1.43895 -16.8909
ltibia 26.4472
lfoot -5.93858 2.75303
ltoes -2.36312
427
root -28.8494 17.7782 4.67539 498.957 -85.59 -495.053
lowerback -0.834476 0.731606 1.50913
upperback -0.405631 0.954066 1.10288
thorax 0.058448 0.472297 0.291263
lowerneck -15.2172 -3.71541 -6.72697
upperneck 24.1536 -4.73204 3.4597
head 10.5023 -2.51548 1.6981
rclavicle 1.17718e-015 -1.05604e-014
rhumerus -23.5332 -17.1683 -74.8447
rradius 22.9124
rwrist 12.1194
rhand -15.8155 -25.6414
rfingers 7.12502
rthumb 10.3781 -55.3653
lclavicle 1.17718e-015 -1.05604e-014
lhumerus -36.8917 36.2138 65.1719
lradius 13.4551
lwrist -45.6142
lhand -13.413 19.6645
lfingers 7.12502
lthumb 12.695 49.2586
rfemur -15.7461 -4.64316 21.2308
rtibia 66.4888
rfoot 9.56791 -20.6977
rtoes 7.72249
lfemur -20.2263 -1.57243 -17.0382
ltibia 25.9482
lfoot -6.28454 2.70102
ltoes -2.34004
428
root -29.0072 17.8038 4.68582 497.331 -85.7336 -493.587
lowerback -0.80143 0.558721 1.48448
upperback -0.417016 0.723763 1.19293
thorax 0.0254344 0.356705 0.394693
lowerneck -15.2764 -3.61369 -6.64445
upperneck 24.1735 -4.59059 3.3981
head 10.5087 -2.45034 1.68128
rclavicle -7.74678e-015 -1.74806e-014
rhumerus -23.6612 -17.1 -75.1413
rradius 22.7012
rwrist 12.6338
rhand -15.5429 -25.2505
rfingers 7.12502
rthumb 10.6411 -54.9611
lclavicle -7.74678e-015 -1.74806e-014
lhumerus -34.9905 34.3022 67.3657
lradius 13.9098
lwrist -43.8906
lhand -13.6026 19.5568
lfingers 7.12502
lthumb 12.5122 49.1622
rfemur -16.8747 -5.3064 21.172
rtibia 67.3408
rfoot 8.86825 -21.5486
rtoes 8.50764
lfemur -19.1391 -1.77445 -17.194
ltibia 25.3817
lfoot -6.58683 2.71143
ltoes -2.29378
429
root -29.1634 17.8298 4.69622 495.971 -85.9044 -492.374
lowerback -0.768306 0.387514 1.41532
upperback -0.44096 0.49632 1.27837
thorax -0.0198802 0.24259 0.518628
lowerneck -15.3303 -3.5193 -6.57319
upperneck 24.1941 -4.45898 3.34323
head 10.5156 -2.39008 1.66743
rclavicle -8.02282e-015 6.26172e-015
rhumerus -23.8272 -17.0099 -75.416
rradius 22.5289
rwrist 13.085
rhand -15.2789 -24.8189
rfingers 7.12502
rthumb 10.8958 -54.5162
lclavicle -8.02282e-015 6.26172e-015
lhumerus -33.2386 32.2928 69.4047
lradius 14.4358
lwrist -42.126
lhand -13.8355 19.4722
lfingers 7.12502
lthumb 12.2877 49.0912
rfemur -17.9942 -5.9354 21.0796
rtibia 68.0131
rfoot 8.23668 -22.1663
rtoes 9.04038
lfemur -18.0429 -2.04633 -17.3995
ltibia 24.7527
lfoot -6.84857 2.78021
ltoes -2.26818
430
root -29.3183 17.8558 4.70646 495.049 -86.1082 -491.585
lowerback -0.738361 0.221653 1.29384
upperback -0.473176 0.276582 1.35258
thorax -0.0708588 0.132535 0.660796
lowerneck -15.3857 -3.4346 -6.51341
upperneck 24.2115 -4.34098 3.30082
head 10.5233 -2.33551 1.65806
rclavicle -2.08724e-015 1.98785e-015
rhumerus -24.0285 -16.905 -75.6709
rradius 22.4001
rwrist 13.463
rhand -15.0019 -24.3569
rfingers 7.12502
rthumb 11.1629 -54.04
lclavicle -2.08724e-015 1.98785e-015
lhumerus -31.6333 30.2355 71.267
lradius 15.0214
lwrist -40.3763
lhand -14.0976 19.3971
lfingers 7.12502
lthumb 12.035 49.031
rfemur -19.0974 -6.52283 20.9428
rtibia 68.5058
rfoot 7.63495 -22.5211
rtoes 9.42177
lfemur -16.9379 -2.36814 -17.6694
ltibia 24.0673
lfoot -7.07385 2.89153
ltoes -2.26415
431
root -29.4719 17.8815 4.71659 494.651 -86.3454 -491.302
lowerback -0.719707 0.0606882 1.12
upperback -0.509881 0.0636559 1.41372
thorax -0.118695 0.0262121 0.81934
lowerneck -15.4473 -3.35965 -6.46368
upperneck 24.2206 -4.23723 3.2747
head 10.5306 -2.28611 1.65414
rclavicle 5.7896e-015 7.05686e-015
rhumerus -24.2488 -16.7929 -75.9115
rradius 22.3002
rwrist 13.7635
rhand -14.7216 -23.8689
rfingers 7.12502
rthumb 11.4333 -53.5371
lclavicle 5.7896e-015 7.05686e-015
lhumerus -30.1582 28.176 72.9463
lradius 15.6537
lwrist -38.656
lhand -14.3453 19.3375
lfingers 7.12502
lthumb 11.7961 48.9853
rfemur -20.1787 -7.06728 20.7602
rtibia 68.8103
rfoot 7.02951 -22.5958
rtoes 9.71883
lfemur -15.8317 -2.70814 -18.0069
ltibia 23.3382
lfoot -7.26998 3.02038
ltoes -2.28498
432
root -29.6242 17.9067 4.72635 494.637 -86.6068 -491.386
lowerback -0.70444 -0.0962823 0.911479
upperback -0.558562 -0.143597 1.46393
thorax -0.17517 -0.0770003 0.986484
lowerneck -15.4887 -3.29277 -6.41928
upperneck 24.2143 -4.14767 3.26096
head 10.5297 -2.2423 1.6538
rclavicle 2.97556e-015 -1.02374e-014
rhumerus -24.5024 -16.6474 -76.1453
rradius 22.2408
rwrist 13.9589
rhand -14.425 -23.4069
rfingers 7.12502
rthumb 11.7192 -53.0591
lclavicle 2.97556e-015 -1.02374e-014
lhumerus -28.8118 26.0892 74.455
lradius 16.3305
lwrist -36.9274
lhand -14.5768 19.2987
lfingers 7.12502
lthumb 11.5729 48.9592
rfemur -21.2416 -7.5685 20.5538
rtibia 68.9396
rfoot 6.36823 -22.4154
rtoes 10.0101
lfemur -14.7305 -3.04033 -18.3864
ltibia 22.5764
lfoot -7.44233 3.13977
ltoes -2.29459
433
root -29.7749 17.931 4.73551 495.01 -86.8749 -491.84
lowerback -0.696831 -0.246041 0.68201
upperback -0.612356 -0.341288 1.50937
thorax -0.230801 -0.17514 1.16082
lowerneck -15.528 -3.23589 -6.38671
upperneck 24.1913 -4.0723 3.26313
head 10.5237 -2.20379 1.65918
rclavicle -1.51263e-015 -1.37161e-014
rhumerus -24.7668 -16.4694 -76.376
rradius 22.2135
rwrist 14.0478
rhand -14.1251 -22.9736
rfingers 7.12502
rthumb 12.0085 -52.6091
lclavicle -1.51263e-015 -1.37161e-014
lhumerus -27.5663 24.017 75.8033
lradius 17.0441
lwrist -35.205
lhand -14.7631 19.288
lfingers 7.12502
lthumb 11.3933 48.9584
rfemur -22.2799 -8.0074 20.3432
rtibia 68.8716
rfoot 5.65108 -22.0253
rtoes 10.2475
lfemur -13.6443 -3.32768 -18.7828
ltibia 21.7942
lfoot -7.59117 3.22595
ltoes -2.28216
434
root -29.924 17.9539 4.7437 495.678 -87.137 -492.568
lowerback -0.681926 -0.386183 0.446527
upperback -0.682401 -0.526009 1.55379
thorax -0.305515 -0.266522 1.33795
lowerneck -15.5373 -3.18532 -6.35846
upperneck 24.1457 -4.0077 3.27209
head 10.5046 -2.16989 1.6665
rclavicle 1.3418e-015 -1.09332e-014
rhumerus -25.0656 -16.2488 -76.5981
rradius 22.2252
rwrist 14.035
rhand -13.8143 -22.5771
rfingers 7.12502
rthumb 12.3082 -52.1949
lclavicle 1.3418e-015 -1.09332e-014
lhumerus -26.4265 21.9677 76.9942
lradius 17.7922
lwrist -33.488
lhand -14.9491 19.2907
lfingers 7.12502
lthumb 11.2138 48.971
rfemur -23.3072 -8.38561 20.149
rtibia 68.6284
rfoot 4.87468 -21.4796
rtoes 10.3909
lfemur -12.583 -3.54799 -19.17
ltibia 21.0067
lfoot -7.72286 3.2619
ltoes -2.252
435
root -30.0709 17.9754 4.75085 496.488 -87.3777 -493.419
lowerback -0.656118 -0.517076 0.221683
upperback -0.7663 -0.698512 1.60338
thorax -0.399134 -0.351511 1.515
lowerneck -15.5382 -3.14195 -6.33929
upperneck 24.0854 -3.95287 3.2898
head 10.4795 -2.14003 1.67717
rclavicle 4.85159e-015 5.36719e-015
rhumerus -25.3801 -15.9842 -76.8152
rradius 22.2615
rwrist 13.9353
rhand -13.5088 -22.2059
rfingers 7.12502
rthumb 12.6027 -51.8058
lclavicle 4.85159e-015 5.36719e-015
lhumerus -25.372 19.9743 78.0363
lradius 18.5715
lwrist -31.7977
lhand -15.1103 19.3211
lfingers 7.12502
lthumb 11.0583 49.0098
rfemur -24.3308 -8.696 19.9947
rtibia 68.2198
rfoot 3.99875 -20.8579
rtoes 10.2827
lfemur -11.5624 -3.68825 -19.5193
ltibia 20.231
lfoot -7.8422 3.2443
ltoes -2.20816
436
root -30.2163 17.995 4.7567 497.318 -87.6012 -494.278
lowerback -0.620749 -0.638227 0.00966805
upperback -0.856166 -0.858307 1.65732
thorax -0.503125 -0.429829 1.68992
lowerneck -15.5303 -3.10383 -6.32069
upperneck 24.003 -3.90453 3.30796
head 10.445 -2.11274 1.68721
rclavicle 4.43228e-015 -3.37934e-015
rhumerus -25.7092 -15.6995 -77.0211
rradius 22.3253
rwrist 13.7883
rhand -13.1989 -21.8521
rfingers 7.12502
rthumb 12.9015 -51.4333
lclavicle 4.43228e-015 -3.37934e-015
lhumerus -24.386 18.0722 78.9357
lradius 19.3786
lwrist -30.1955
lhand -15.2183 19.3762
lfingers 7.12502
lthumb 10.9542 49.0705
rfemur -25.3326 -8.94994 19.8767
rtibia 67.6456
rfoot 3.05913 -20.23
rtoes 9.91903
lfemur -10.5774 -3.75216 -19.8301
ltibia 19.4783
lfoot -7.95882 3.17027
ltoes -2.17585
